<?xml version="1.0" encoding="UTF-8" standalone="no" ?>
<!DOCTYPE svg PUBLIC "-//W3C//DTD SVG 1.1//EN" "http://www.w3.org/Graphics/SVG/1.1/DTD/svg11.dtd">
<svg xmlns="http://www.w3.org/2000/svg" xmlns:xlink="http://www.w3.org/1999/xlink" version="1.1" width="500" height="500" viewBox="0 0 500 500" xml:space="preserve">
<desc>Created with Fabric.js 4.6.0</desc>
<defs>
</defs>
<g transform="matrix(0.07 0 0 -0.07 250 250)" id="qD-7SVrqFP-gqmeFBkUTt"  >
<path style="stroke: none; stroke-width: 1; stroke-dasharray: none; stroke-linecap: butt; stroke-dashoffset: 0; stroke-linejoin: miter; stroke-miterlimit: 4; fill: rgb(255,255,255); fill-rule: nonzero; opacity: 1;" vector-effect="non-scaling-stroke"  transform=" translate(-1080, -514.41)" d="M 2160 0 L 0 0 L 0 1028.83 L 2160 1028.83 L 2160 0" stroke-linecap="round" />
</g>
<g transform="matrix(0.07 0 0 -0.07 291.14 250)" id="e5xTXAUxU1WYQtyZJSsFP"  >
<path style="stroke: none; stroke-width: 1; stroke-dasharray: none; stroke-linecap: butt; stroke-dashoffset: 0; stroke-linejoin: miter; stroke-miterlimit: 4; fill: rgb(95,158,213); fill-rule: nonzero; opacity: 1;" vector-effect="non-scaling-stroke"  transform=" translate(-1659.66, -514.41)" d="M 2057.19 102.871 L 1262.13 102.871 L 1262.13 925.957 L 2057.19 925.957 L 2057.19 102.871" stroke-linecap="round" />
</g>
<g transform="matrix(0.07 0 0 -0.07 221.79 250)" id="dpWbYVUDD01DzAO-nwpi1"  >
<path style="stroke: none; stroke-width: 1; stroke-dasharray: none; stroke-linecap: butt; stroke-dashoffset: 0; stroke-linejoin: miter; stroke-miterlimit: 4; fill: rgb(35,78,149); fill-rule: nonzero; opacity: 1;" vector-effect="non-scaling-stroke"  transform=" translate(-682.5, -514.41)" d="M 1262.13 102.871 L 102.871 102.871 L 102.871 925.957 L 1262.13 925.957 L 1262.13 102.871" stroke-linecap="round" />
</g>
<g transform="matrix(0.07 0 0 -0.07 291.14 249.62)" id="iXGnFCCOLfUSI5d3re5Il"  >
<path style="stroke: none; stroke-width: 1; stroke-dasharray: none; stroke-linecap: butt; stroke-dashoffset: 0; stroke-linejoin: miter; stroke-miterlimit: 4; fill: rgb(255,255,255); fill-rule: nonzero; opacity: 1;" vector-effect="non-scaling-stroke"  transform=" translate(-1659.69, -519.78)" d="M 1988.02 519.805 C 1988.02 338.52699999999993 1840.9 191.44499999999994 1659.68 191.44499999999994 C 1478.22 191.44499999999994 1331.3600000000001 338.52699999999993 1331.3600000000001 519.805 C 1331.3600000000001 701.1329999999999 1478.2200000000003 848.125 1659.68 848.125 C 1840.9 848.125 1988.02 701.133 1988.02 519.8050000000001" stroke-linecap="round" />
</g>
<g transform="matrix(0.07 0 0 -0.07 291.14 245.76)" id="7uGkBnf3I2mwTte4VowIy"  >
<path style="stroke: none; stroke-width: 1; stroke-dasharray: none; stroke-linecap: butt; stroke-dashoffset: 0; stroke-linejoin: miter; stroke-miterlimit: 4; fill: rgb(249,169,60); fill-rule: nonzero; opacity: 1;" vector-effect="non-scaling-stroke"  transform=" translate(-1659.7, -573.85)" d="M 1489.3 455.703 C 1492.6399999999999 457.28499999999997 1500.36 460.703 1503.78 462.375 C 1507.75 464.395 1507.2 466.027 1506.01 469.25 C 1500.82 485.012 1498.25 501.738 1498.25 519.055 C 1498.25 608.141 1570.68 680.6329999999999 1659.78 680.6329999999999 C 1748.62 680.6329999999999 1820.98 608.141 1820.98 519.055 C 1820.98 496.28899999999993 1816.19 474.40599999999995 1807.69 454.82399999999996 C 1806.91 453.43799999999993 1806.8 450.65599999999995 1809.14 449.42599999999993 C 1811.7800000000002 448.31299999999993 1821.5700000000002 443.90599999999995 1824.43 442.79299999999995 C 1827.3500000000001 441.64099999999996 1829.14 442.316 1830.66 445.3709999999999 C 1840.42 468.0979999999999 1845.8400000000001 492.9219999999999 1845.8400000000001 519.055 C 1845.8400000000001 621.9259999999999 1762.43 705.4259999999999 1659.7800000000002 705.4259999999999 C 1556.88 705.4259999999999 1473.5500000000002 621.9259999999999 1473.5500000000002 519.055 C 1473.5500000000002 497.96099999999996 1477.0500000000002 477.82399999999996 1483.4800000000002 458.87899999999996 C 1484.3900000000003 456.01599999999996 1485.9500000000003 454.152 1489.3000000000002 455.703" stroke-linecap="round" />
</g>
<g transform="matrix(0.07 0 0 -0.07 291.14 244.66)" id="Dd0BMSSEZJEO3fbsrKD5i"  >
<path style="stroke: none; stroke-width: 1; stroke-dasharray: none; stroke-linecap: butt; stroke-dashoffset: 0; stroke-linejoin: miter; stroke-miterlimit: 4; fill: rgb(249,169,60); fill-rule: nonzero; opacity: 1;" vector-effect="non-scaling-stroke"  transform=" translate(-1659.61, -589.35)" d="M 1442.05 433.77 C 1445.83 435.762 1459.1499999999999 441.758 1462.6499999999999 443.54699999999997 C 1466.3 445.05899999999997 1465.4499999999998 448.11699999999996 1464.85 449.50399999999996 C 1457.09 471.27 1452.86 494.54299999999995 1452.86 519.055 C 1452.86 633.289 1545.61 725.996 1659.78 725.996 C 1773.59 725.996 1866.36 633.289 1866.36 519.055 C 1866.36 489.816 1860.34 462.05099999999993 1849.28 436.83599999999996 C 1848.72 435.52 1847.74 432.383 1851.26 431.07399999999996 C 1854.4 429.64099999999996 1869.28 423.008 1872.01 421.77699999999993 C 1874.93 420.58599999999996 1876.76 421.1049999999999 1878.23 424.5229999999999 C 1890.9 453.43799999999993 1897.83 485.48799999999994 1897.83 519.055 C 1897.83 650.4839999999999 1791.08 757.496 1659.78 757.496 C 1528.22 757.496 1421.3799999999999 650.4839999999999 1421.3799999999999 519.055 C 1421.3799999999999 490.13699999999994 1426.6599999999999 462.37499999999994 1436.1899999999998 436.6329999999999 C 1436.7499999999998 435.05099999999993 1437.9599999999998 431.90599999999995 1442.0499999999997 433.7699999999999" stroke-linecap="round" />
</g>
<g transform="matrix(0.07 0 0 -0.07 291.14 243.11)" id="IiKFDhdKrUJKPyHfMx7ds"  >
<path style="stroke: none; stroke-width: 1; stroke-dasharray: none; stroke-linecap: butt; stroke-dashoffset: 0; stroke-linejoin: miter; stroke-miterlimit: 4; fill: rgb(249,169,60); fill-rule: nonzero; opacity: 1;" vector-effect="non-scaling-stroke"  transform=" translate(-1659.63, -611.05)" d="M 1377.67 404.141 C 1382.28 406.445 1410.29 419.39500000000004 1415.13 421.543 C 1420.21 423.723 1417.99 427.539 1417.2900000000002 429.641 C 1406.9200000000003 457.57 1401.2600000000002 487.67600000000004 1401.2600000000002 519.0550000000001 C 1401.2600000000002 661.7660000000001 1517.1400000000003 777.7070000000001 1659.7800000000002 777.7070000000001 C 1801.9900000000002 777.7070000000001 1917.9900000000002 661.7660000000001 1917.9900000000002 519.0550000000001 C 1917.9900000000002 482.98800000000006 1910.4800000000002 448.71100000000007 1897.2000000000003 417.41400000000004 C 1896.2800000000002 415.50800000000004 1895.3700000000003 411.73 1900.1200000000003 409.66800000000006 C 1904.5200000000004 407.63700000000006 1931.8000000000004 395.64500000000004 1935.5500000000004 394.1720000000001 C 1939.2000000000005 392.3830000000001 1942.0400000000004 392.7850000000001 1944.5200000000004 398.22300000000007 C 1960.2900000000004 435.5200000000001 1968.9500000000005 476.3980000000001 1968.9500000000005 519.0550000000001 C 1968.9500000000005 689.844 1830.2500000000005 828.883 1659.7800000000004 828.883 C 1488.9800000000005 828.883 1350.3000000000004 689.844 1350.3000000000004 519.0550000000001 C 1350.3000000000004 479.7660000000001 1357.6300000000003 442.27700000000004 1371.0400000000004 407.79300000000006 C 1371.7500000000005 405.8520000000001 1373.1400000000003 402.19900000000007 1377.6700000000005 404.1410000000001" stroke-linecap="round" />
</g>
<g transform="matrix(0.07 0 0 -0.07 291.16 242.51)" id="pMQ7sKa_opi9B6bXJuU_m"  >
<path style="stroke: none; stroke-width: 1; stroke-dasharray: none; stroke-linecap: butt; stroke-dashoffset: 0; stroke-linejoin: miter; stroke-miterlimit: 4; fill: rgb(239,50,59); fill-rule: nonzero; opacity: 1;" vector-effect="non-scaling-stroke"  transform=" translate(-1659.88, -619.46)" d="M 1659.83 586.297 C 1678.01 586.297 1693.04 601.07 1693.04 619.3870000000001 C 1693.04 637.8910000000001 1678.01 652.629 1659.83 652.629 C 1641.33 652.629 1626.71 637.8910000000001 1626.71 619.3870000000001 C 1626.71 601.07 1641.33 586.297 1659.83 586.297" stroke-linecap="round" />
</g>
<g transform="matrix(0.07 0 0 -0.07 291.15 249.65)" id="ZRj6xGadhXK_liR5M-G3Y"  >
<path style="stroke: none; stroke-width: 1; stroke-dasharray: none; stroke-linecap: butt; stroke-dashoffset: 0; stroke-linejoin: miter; stroke-miterlimit: 4; fill: rgb(239,50,59); fill-rule: nonzero; opacity: 1;" vector-effect="non-scaling-stroke"  transform=" translate(-1659.76, -519.37)" d="M 1671.99 412.648 C 1678.39 412.648 1683.58 417.891 1683.58 424.367 L 1683.58 497.09000000000003 C 1683.9299999999998 506.305 1690.46 518.1410000000001 1696.8799999999999 525.0120000000001 L 1765.35 593.4490000000001 C 1769.98 598.0550000000001 1769.98 605.6800000000001 1765.35 610.129 L 1752.86 622.5980000000001 C 1748.35 627.2460000000001 1740.78 627.2460000000001 1736.26 622.5980000000001 L 1674.49 560.6800000000001 C 1670.24 556.6680000000001 1667.38 554.1680000000001 1659.83 554.1680000000001 C 1652.09 554.1680000000001 1649.11 556.6680000000001 1645.1399999999999 560.6800000000001 L 1583.27 622.5980000000001 C 1578.58 627.2460000000001 1571.22 627.2460000000001 1566.73 622.5980000000001 L 1554.14 610.129 C 1549.5500000000002 605.6800000000001 1549.5500000000002 598.0550000000001 1554.14 593.4490000000001 L 1622.71 525.0120000000001 C 1629.19 518.1410000000001 1635.55 506.30500000000006 1635.8600000000001 497.09000000000003 L 1635.8600000000001 424.367 C 1635.8600000000001 417.891 1641.1000000000001 412.648 1647.5800000000002 412.648 L 1671.9900000000002 412.648" stroke-linecap="round" />
</g>
<g transform="matrix(0.07 0 0 -0.07 291.18 263.8)" id="Fasyqd-iB9il_uK1X8PJx"  >
<path style="stroke: none; stroke-width: 1; stroke-dasharray: none; stroke-linecap: butt; stroke-dashoffset: 0; stroke-linejoin: miter; stroke-miterlimit: 4; fill: rgb(35,78,149); fill-rule: nonzero; opacity: 1;" vector-effect="non-scaling-stroke"  transform=" translate(-1660.19, -320.69)" d="M 1887.88 386.906 C 1876.3100000000002 382.617 1854.66 361.25 1844.93 352.551 L 1842.21 352.14799999999997 C 1845.68 355.969 1860.6000000000001 374.914 1864.51 381.38699999999994 C 1876.31 400.96899999999994 1854.04 419.3949999999999 1829.6 405.3709999999999 C 1820.26 400.05099999999993 1804.73 383.7299999999999 1797.2099999999998 377.7729999999999 L 1794.86 377.1799999999999 C 1798.2099999999998 380.5469999999999 1812.06 398.6639999999999 1815.6699999999998 404.5429999999999 C 1826.4399999999998 420.3909999999999 1804.0099999999998 435.4409999999999 1784.6899999999998 423.7229999999999 C 1771.0099999999998 415.5079999999999 1759.82 404.2969999999999 1748.35 395.4019999999999 L 1746.35 394.89499999999987 C 1749.4199999999998 397.87099999999987 1757.11 406.96499999999986 1760.03 410.1369999999999 C 1771.45 422.9689999999999 1755.1 437.74599999999987 1737.86 428.7299999999999 C 1721.32 420.31299999999993 1697.55 396.5549999999999 1671.51 379.8749999999999 C 1683.58 373.35899999999987 1704.83 372.3629999999999 1738.5 357.9879999999999 C 1772.28 343.5739999999999 1783.2 310.0119999999999 1761.14 283.5159999999999 C 1740.7800000000002 258.9649999999999 1709.7700000000002 267.2269999999999 1683.0700000000002 275.5779999999999 C 1652.0900000000001 285.2659999999999 1641.1000000000001 295.2729999999999 1603.8100000000002 308.2229999999999 C 1579.4600000000003 316.7189999999999 1569.4700000000003 316.6019999999999 1569.93 323.5549999999999 C 1570.3300000000002 331.5349999999999 1591.4 326.76999999999987 1611.1000000000001 319.62099999999987 C 1665.8100000000002 299.76599999999985 1738.42 254.75799999999987 1756.2500000000002 303.3009999999999 C 1770.3500000000001 341.5429999999999 1707.3300000000002 358.14499999999987 1683.1900000000003 362.71499999999986 C 1649.6100000000004 369.19099999999986 1626.4500000000003 393.78099999999984 1597.3500000000004 409.46499999999986 C 1553.3700000000003 433.1759999999999 1519.5500000000004 433.76999999999987 1494.4600000000003 429.2499999999999 C 1467.4500000000003 424.4449999999999 1428.9600000000003 402.39499999999987 1405.6700000000003 388.3789999999999 C 1389.4600000000003 378.80099999999993 1390.6700000000003 364.15199999999993 1406.4600000000003 341.7109999999999 C 1462.5900000000004 261.9919999999999 1555.0200000000002 209.8749999999999 1659.6800000000003 209.8749999999999 C 1770.6500000000003 209.8749999999999 1868.0700000000002 268.8199999999999 1922.6000000000004 356.5629999999999 C 1934.7400000000005 376.14499999999987 1915.7200000000003 396.79699999999985 1887.8800000000003 386.9059999999999" stroke-linecap="round" />
</g>
<g transform="matrix(0.07 0 0 -0.07 251.03 265.6)" id="78cYYJ5iDY5G6WWdFIT20"  >
<path style="stroke: none; stroke-width: 1; stroke-dasharray: none; stroke-linecap: butt; stroke-dashoffset: 0; stroke-linejoin: miter; stroke-miterlimit: 4; fill: rgb(255,255,255); fill-rule: nonzero; opacity: 1;" vector-effect="non-scaling-stroke"  transform=" translate(-1094.52, -295.45)" d="M 1000.93 173.887 C 1000.9899999999999 164.992 1032.76 155.344 1049.3999999999999 155.344 C 1065.9699999999998 155.344 1089.28 161.582 1101.28 191.094 C 1113.8999999999999 222.148 1166.22 401.36699999999996 1166.22 401.36699999999996 L 1172.1200000000001 401.484 C 1183.8600000000001 403.54699999999997 1188.1100000000001 410.539 1188.1100000000001 428.53499999999997 C 1188.1100000000001 435.01199999999994 1187.2 435.566 1181.97 435.566 L 1139.03 435.566 C 1134.8999999999999 435.441 1134.51 434.80499999999995 1133.21 430.55899999999997 L 1097.47 292.375 L 1060.64 430.55899999999997 C 1059.49 434.80499999999995 1058.94 435.441 1054.8600000000001 435.566 L 1011.6900000000002 435.566 C 1006.5100000000002 435.566 1005.5700000000002 435.012 1005.5700000000002 428.53499999999997 C 1005.5700000000002 410.49999999999994 1009.9800000000001 403.469 1021.7800000000002 401.484 L 1027.8200000000002 401.36699999999996 C 1027.8200000000002 401.36699999999996 1062.15 281.09399999999994 1080.2200000000003 230.69499999999996 L 1077.5800000000002 220.91799999999998 C 1071.8100000000002 202.051 1061.7600000000002 193.39099999999996 1045.9900000000002 193.39099999999996 C 1042.1500000000003 193.39099999999996 1021.0300000000002 196.61299999999997 1021.0300000000002 196.61299999999997 C 1009.0500000000002 197.55899999999997 1005.8500000000003 192.55899999999997 1004.5400000000002 188.23399999999998 C 1002.3600000000002 182.07 1000.9300000000002 175.117 1000.9300000000002 173.88699999999997" stroke-linecap="round" />
</g>
<g transform="matrix(0.07 0 0 -0.07 223.93 260.18)" id="e4v-6cJYQQU5b1gbEaEQs"  >
<path style="stroke: none; stroke-width: 1; stroke-dasharray: none; stroke-linecap: butt; stroke-dashoffset: 0; stroke-linejoin: miter; stroke-miterlimit: 4; fill: rgb(255,255,255); fill-rule: nonzero; opacity: 1;" vector-effect="non-scaling-stroke"  transform=" translate(-712.73, -371.52)" d="M 854.52 502.727 L 803.3009999999999 502.727 C 798.7929999999999 502.727 798.7339999999999 502.246 798.0229999999999 497.727 L 769.105 318.75 L 734.293 496.809 C 733.379 501.613 732.68 502.72700000000003 727.203 502.72700000000003 L 703.727 502.72700000000003 C 695.129 502.72700000000003 694.75 501.418 693.754 496.49600000000004 L 657.313 318.75 L 630.027 497.727 C 629.332 502.246 629.234 502.727 624.8240000000001 502.727 L 572.1020000000001 502.727 C 566.6560000000001 502.727 565.7620000000001 502.207 565.7620000000001 495.5 C 565.7620000000001 475.801 570.605 468.605 584.5120000000001 467.023 L 589.8280000000001 466.66 L 629.9060000000001 246.45700000000002 C 631.301 241.34000000000003 631.793 240.30500000000004 636.5820000000001 240.30500000000004 L 671.3130000000001 240.30500000000004 C 676.9140000000001 240.30500000000004 677.094 240.57800000000003 678.0270000000002 246.45700000000002 L 712.6410000000002 417.688 L 741.6800000000002 246.301 C 742.8320000000002 240.57799999999997 742.8320000000002 240.30499999999998 748.4920000000002 240.30499999999998 L 783.8830000000002 240.30499999999998 C 788.5630000000001 240.30499999999998 789.2620000000002 241.33999999999997 790.4920000000002 246.45699999999997 L 835.9730000000002 466.85499999999996 L 841.0160000000002 467.02299999999997 C 855.0390000000002 468.60499999999996 859.7030000000002 475.84 859.7030000000002 495.49999999999994 C 859.7030000000002 501.73799999999994 858.8320000000002 502.41399999999993 854.5200000000002 502.7269999999999" stroke-linecap="round" />
</g>
<g transform="matrix(0.07 0 0 -0.07 239.19 262.58)" id="O4dvufG7z0WBYzeFMDmNq"  >
<path style="stroke: none; stroke-width: 1; stroke-dasharray: none; stroke-linecap: butt; stroke-dashoffset: 0; stroke-linejoin: miter; stroke-miterlimit: 4; fill: rgb(255,255,255); fill-rule: nonzero; opacity: 1;" vector-effect="non-scaling-stroke"  transform=" translate(-927.75, -337.85)" d="M 942.379 283.996 C 937.613 278.75 927.523 267.988 913.461 267.988 C 899.066 267.988 887.965 280.383 887.965 296.582 C 887.965 332.76599999999996 930.6840000000001 330.586 942.379 329.707 z M 988.035 274.777 C 985.953 282.441 983.9839999999999 292.102 983.9839999999999 309.816 L 983.9839999999999 379.121 C 983.9839999999999 422.77299999999997 965.0389999999999 442.15999999999997 921.9259999999999 442.15999999999997 C 891.9379999999999 442.15999999999997 860.199 429.24999999999994 860.199 421.10499999999996 C 860.199 420.109 861.531 413.71099999999996 863.578 407.92199999999997 C 864.512 405.371 866.438 399.414 879.145 400.332 C 884.293 400.734 906.293 404.941 915.5699999999999 404.941 C 939.9569999999999 404.941 942.3789999999999 390.72299999999996 942.3789999999999 373.996 L 942.3789999999999 360.176 C 912.012 360.176 846.3949999999999 359.85499999999996 846.3949999999999 293.84799999999996 C 846.3949999999999 256.621 867.0119999999998 233.54699999999997 900.3359999999999 233.54699999999997 C 925.5629999999999 233.54699999999997 938.1679999999999 247.37499999999997 945.68 255.75399999999996 L 948.574 258.965 L 949.5079999999999 253.926 C 951.059 245.85899999999998 952.5509999999999 240.30499999999998 958.727 240.30499999999998 L 1002.93 240.30499999999998 C 1008.43 240.30499999999998 1009.1099999999999 240.742 1009.1099999999999 247.08999999999997 C 1009.1099999999999 266.875 1004.4199999999998 273.828 988.0349999999999 274.777" stroke-linecap="round" />
</g>
<g transform="matrix(0.07 0 0 -0.07 219.57 239.45)" id="A_tF8E6fO3myMScxVs5_g"  >
<path style="stroke: none; stroke-width: 1; stroke-dasharray: none; stroke-linecap: butt; stroke-dashoffset: 0; stroke-linejoin: miter; stroke-miterlimit: 4; fill: rgb(255,255,255); fill-rule: nonzero; opacity: 1;" vector-effect="non-scaling-stroke"  transform=" translate(-651.31, -662.5)" d="M 677.613 599.523 L 672.9060000000001 599.645 L 672.9060000000001 755.824 C 672.9060000000001 759.684 672.629 760.117 669.0160000000001 760.117 L 607.2460000000001 760.117 C 601.863 760.117 601.2300000000001 759.684 601.2300000000001 753.25 C 601.2300000000001 732 606.8710000000001 725.523 625.2190000000002 725.523 L 629.6290000000001 725.523 L 629.6290000000001 599.645 L 624.9410000000001 599.523 C 606.5550000000002 599.523 600.9920000000002 592.969 600.9920000000002 571.758 C 600.9920000000002 565.4060000000001 601.8240000000002 564.8910000000001 607.1290000000001 564.8910000000001 L 695.4650000000001 564.8910000000001 C 700.6290000000001 564.8910000000001 701.6210000000001 565.4060000000001 701.6210000000001 571.758 C 701.6210000000001 592.77 695.6450000000001 599.523 677.613 599.523" stroke-linecap="round" />
</g>
<g transform="matrix(0.07 0 0 -0.07 219.52 229.22)" id="lUMPViQsAJbSjPgI2DiDE"  >
<path style="stroke: none; stroke-width: 1; stroke-dasharray: none; stroke-linecap: butt; stroke-dashoffset: 0; stroke-linejoin: miter; stroke-miterlimit: 4; fill: rgb(255,255,255); fill-rule: nonzero; opacity: 1;" vector-effect="non-scaling-stroke"  transform=" translate(-650.52, -806.06)" d="M 650.82 834.207 C 635.984 834.207 624.527 821.832 624.527 806.145 C 624.527 790.6949999999999 636.2660000000001 777.922 650.82 777.922 C 665.0980000000001 777.922 676.5200000000001 790.695 676.5200000000001 806.145 C 676.5200000000001 821.574 665.0980000000001 834.207 650.82 834.207" stroke-linecap="round" />
</g>
<g transform="matrix(0.07 0 0 -0.07 192.73 237.54)" id="e02HdYOI0r9uoF1yalBKs"  >
<path style="stroke: none; stroke-width: 1; stroke-dasharray: none; stroke-linecap: butt; stroke-dashoffset: 0; stroke-linejoin: miter; stroke-miterlimit: 4; fill: rgb(255,255,255); fill-rule: nonzero; opacity: 1;" vector-effect="non-scaling-stroke"  transform=" translate(-272.97, -689.26)" d="M 358.523 784.797 L 359.68 784.797 C 378.445 784.797 384.348 791.727 384.348 813.434 C 384.348 819.8439999999999 383.551 820.504 378.105 820.504 L 293.047 820.504 C 288.223 820.504 287.52700000000004 819.688 287.012 816.77 L 286.813 813.434 C 286.813 791.781 292.691 784.934 311.121 784.797 L 312.313 784.797 L 312.313 656.598 C 312.313 632.012 312.313 598.6089999999999 272.93 598.6089999999999 C 236.488 598.6089999999999 233.57 624.8629999999999 233.57 656.598 L 233.57 784.797 L 234.82 784.797 C 253.10899999999998 784.934 259.066 791.7810000000001 259.066 813.434 L 258.789 817.48 C 258.277 819.785 257.52 820.504 252.832 820.504 L 167.914 820.504 C 162.488 820.504 161.59799999999998 819.844 161.59799999999998 813.434 C 161.59799999999998 791.4839999999999 167.219 784.797 186.32399999999998 784.797 L 187.438 784.797 L 187.438 656.598 C 187.438 587.5699999999999 213.035 558.02 272.93 558.02 C 332.848 558.02 358.523 587.5699999999999 358.523 656.598 L 358.523 784.797" stroke-linecap="round" />
</g>
<g transform="matrix(0.07 0 0 -0.07 207.72 239.21)" id="Yztl3v8IIb4ogZ160Ykym"  >
<path style="stroke: none; stroke-width: 1; stroke-dasharray: none; stroke-linecap: butt; stroke-dashoffset: 0; stroke-linejoin: miter; stroke-miterlimit: 4; fill: rgb(255,255,255); fill-rule: nonzero; opacity: 1;" vector-effect="non-scaling-stroke"  transform=" translate(-484.26, -665.91)" d="M 555.598 599.523 L 555.598 704.984 C 555.598 747.7660000000001 541.5699999999999 766.938 510.11299999999994 766.938 C 481.97299999999996 766.938 466.44499999999994 750.547 454.3709999999999 738.109 C 453.3159999999999 742.645 452.4219999999999 746.219 452.4219999999999 746.219 C 450.5349999999999 754.797 448.9059999999999 760.1170000000001 443.3829999999999 760.1170000000001 L 395.6839999999999 760.1170000000001 C 390.3589999999999 760.1170000000001 389.6049999999999 759.6840000000001 389.6049999999999 753.2500000000001 C 389.6049999999999 733.1480000000001 394.65199999999993 725.9960000000001 411.5549999999999 725.5630000000001 C 413.9529999999999 717.1020000000001 415.5039999999999 710.2300000000001 415.5039999999999 690.0860000000001 L 415.5039999999999 599.5230000000001 C 397.5119999999999 599.4060000000002 392.0309999999999 592.8090000000001 392.0309999999999 571.7580000000002 C 392.0309999999999 565.4060000000002 392.9449999999999 564.8910000000002 398.2069999999999 564.8910000000002 L 455.0229999999999 564.8910000000002 C 458.4999999999999 564.8910000000002 458.7229999999999 565.4060000000002 458.7229999999999 569.0980000000002 L 458.7229999999999 710.4690000000002 C 463.9409999999999 715.8710000000002 475.7379999999999 727.6680000000001 490.8669999999999 727.6680000000001 C 512.3979999999999 727.6680000000001 512.3979999999999 703.0820000000001 512.3979999999999 692.5470000000001 L 512.3979999999999 569.098 C 512.3979999999999 565.406 512.5389999999999 564.891 516.2109999999999 564.891 L 572.7729999999999 564.891 C 577.973 564.891 578.9099999999999 565.406 578.9099999999999 571.7579999999999 C 578.9099999999999 592.535 573.1089999999998 599.3199999999999 555.5979999999998 599.5229999999999" stroke-linecap="round" />
</g>
<g transform="matrix(0.07 0 0 -0.07 227.9 237.54)" id="36QSA8VEof2m8RFcbAEJR"  >
<path style="stroke: none; stroke-width: 1; stroke-dasharray: none; stroke-linecap: butt; stroke-dashoffset: 0; stroke-linejoin: miter; stroke-miterlimit: 4; fill: rgb(255,255,255); fill-rule: nonzero; opacity: 1;" vector-effect="non-scaling-stroke"  transform=" translate(-768.67, -689.26)" d="M 783.762 558.02 C 808.9409999999999 558.02 829.457 564.5699999999999 829.457 570.0509999999999 C 829.457 571.0079999999999 827.9689999999999 578.434 827.0939999999999 582.0859999999999 C 823.559 596.781 822.1679999999999 602.1839999999999 795.438 598.848 C 792.063 598.453 789.023 599.207 786.898 601.309 C 781.754 606.555 781.754 618.0699999999999 781.754 627.324 L 781.754 725.5229999999999 L 805.746 725.5229999999999 C 824.1759999999999 725.5229999999999 829.68 731.9999999999999 829.68 753.2499999999999 C 829.68 759.6839999999999 828.8829999999999 760.1169999999998 823.559 760.1169999999998 L 781.754 760.1169999999998 L 781.754 814.9219999999998 C 781.754 820.1839999999997 781.301 820.4409999999998 779.293 820.5039999999998 C 777.4060000000001 820.5039999999998 768.59 819.3319999999998 764.121 818.6949999999998 C 751.746 816.6049999999998 738.52 807.0389999999999 738.52 784.9339999999999 L 738.52 760.1169999999998 L 713.793 760.1169999999998 C 708.555 760.1169999999998 707.66 759.6839999999999 707.66 753.2499999999999 C 707.66 731.9999999999999 713.3399999999999 725.5229999999999 731.5659999999999 725.5229999999999 L 738.5199999999999 725.5229999999999 L 738.5199999999999 634.0389999999999 C 738.5199999999999 596.7069999999999 738.5199999999999 558.0199999999999 783.7619999999998 558.0199999999999" stroke-linecap="round" />
</g>
<g transform="matrix(0.07 0 0 -0.07 238.61 239.45)" id="vc9y9_7Lny5IsalrAT_fW"  >
<path style="stroke: none; stroke-width: 1; stroke-dasharray: none; stroke-linecap: butt; stroke-dashoffset: 0; stroke-linejoin: miter; stroke-miterlimit: 4; fill: rgb(255,255,255); fill-rule: nonzero; opacity: 1;" vector-effect="non-scaling-stroke"  transform=" translate(-919.5, -662.48)" d="M 890.09 684.723 L 890.3480000000001 688.098 C 891.5200000000001 701.414 894.258 732.395 921.926 732.395 C 948.9920000000001 732.395 949.109 700.816 949.109 684.723 z M 993.6560000000001 658.9839999999999 C 993.6560000000001 730.5659999999999 969.7460000000001 766.9379999999999 922.898 766.9379999999999 C 876.4060000000001 766.9379999999999 845.3480000000001 724.2539999999999 845.3480000000001 660.5309999999998 C 845.3480000000001 575.9299999999998 888.48 558.0199999999999 924.7850000000001 558.0199999999999 C 953.9800000000001 558.0199999999999 987.883 571.7579999999998 987.883 580.3789999999999 C 987.883 581.7299999999999 986.469 588.3199999999999 984.504 594.2379999999999 C 983.176 598.531 980.609 602.9409999999999 968.297 602.3439999999999 C 958.7850000000001 601.867 943.5120000000001 597.457 929.414 597.457 C 902.402 597.457 888.66 614.336 888.48 650.285 L 986.645 650.285 C 992.4449999999999 650.285 993.656 651.754 993.656 658.9839999999999" stroke-linecap="round" />
</g>
<g transform="matrix(0.07 0 0 -0.07 251.7 237.09)" id="2OEKnGLjKyu8aNkrjX4CR"  >
<path style="stroke: none; stroke-width: 1; stroke-dasharray: none; stroke-linecap: butt; stroke-dashoffset: 0; stroke-linejoin: miter; stroke-miterlimit: 4; fill: rgb(255,255,255); fill-rule: nonzero; opacity: 1;" vector-effect="non-scaling-stroke"  transform=" translate(-1103.93, -695.63)" d="M 1089.84 595.391 C 1063.56 595.391 1058.36 619.5039999999999 1058.36 661.328 C 1058.36 705.621 1063.8 729.574 1092.11 729.574 C 1103.31 729.574 1111.55 727.1909999999999 1120.8799999999999 721.035 L 1120.8799999999999 610.25 C 1115.32 603.691 1107.34 595.391 1089.84 595.391 z M 1168.11 599.5229999999999 C 1165.6999999999998 607.1879999999999 1164.2199999999998 615.2109999999999 1164.2199999999998 634.3949999999999 L 1164.2199999999998 829.0819999999999 C 1164.2199999999998 832.7149999999999 1163.9199999999998 833.2339999999999 1160.3199999999997 833.2339999999999 L 1103.4299999999996 833.2339999999999 C 1098.1299999999997 833.2339999999999 1097.1299999999997 832.7149999999999 1097.1299999999997 826.4999999999999 C 1097.1299999999997 805.9259999999999 1102.6599999999996 799.0549999999998 1119.7399999999996 798.7189999999999 L 1120.8799999999997 798.7189999999999 L 1120.8799999999997 753.766 L 1117.3599999999997 756.188 C 1110.8099999999997 760.793 1101.9899999999998 766.938 1083.0099999999998 766.938 C 1038.6399999999999 766.938 1014.9999999999998 728.066 1014.9999999999998 654.453 C 1014.9999999999998 592.336 1036.4899999999998 558.02 1075.4999999999998 558.02 C 1106.4099999999999 558.02 1126.7199999999998 580.656 1126.7199999999998 580.656 L 1129.1899999999998 572.2379999999999 C 1131.0199999999998 565.641 1131.37 564.891 1136.6299999999999 564.891 L 1186.76 564.891 C 1191.94 564.891 1192.87 565.406 1192.87 571.7579999999999 C 1192.87 592.6519999999999 1187.35 599.5229999999999 1168.11 599.5229999999999" stroke-linecap="round" />
</g>
<g transform="matrix(0.07 0 0 -0.07 312.77 274.01)" id="8y4hQ1gMhk02CyQobo9Wx"  >
<path style="stroke: none; stroke-width: 1; stroke-dasharray: none; stroke-linecap: butt; stroke-dashoffset: 0; stroke-linejoin: miter; stroke-miterlimit: 4; fill: rgb(255,255,255); fill-rule: nonzero; opacity: 1;" vector-effect="non-scaling-stroke"  transform=" translate(-1964.36, -177.35)" d="M 1959.58 179.016 L 1964.08 179.016 C 1969.1499999999999 179.016 1971.1499999999999 179.688 1971.1499999999999 183.379 C 1971.1499999999999 186.164 1969.4199999999998 187.434 1965.1399999999999 187.434 L 1959.58 187.434 z M 1959.58 163.488 L 1955.51 163.488 L 1955.51 190.93 L 1965.79 190.93 C 1972.1299999999999 190.93 1975.3 188.39100000000002 1975.3 183.145 C 1975.3 178.262 1972.1299999999999 176.15200000000002 1968.69 175.723 L 1976.04 163.488 L 1971.09 163.488 L 1963.81 175.598 L 1959.58 175.598 z M 1983.3899999999999 177.551 C 1983.3899999999999 188.50799999999998 1975.03 197.012 1964.29 197.012 C 1953.62 197.012 1945.21 188.508 1945.21 177.551 C 1945.21 166.184 1953.6200000000001 157.766 1964.29 157.766 C 1975.03 157.766 1983.3899999999999 166.184 1983.3899999999999 177.551 z M 1940.7499999999998 177.551 C 1940.7499999999998 190.617 1951.5099999999998 200.742 1964.2899999999997 200.742 C 1977.1499999999996 200.742 1987.9799999999998 190.617 1987.9799999999998 177.551 C 1987.9799999999998 164.12099999999998 1977.1499999999999 153.957 1964.2899999999997 153.957 C 1951.5099999999998 153.957 1940.7499999999998 164.12099999999998 1940.7499999999998 177.551" stroke-linecap="round" />
</g>
</svg>